<?xml version="1.0" encoding="UTF-8"?>
<svg width="30" height="30" viewBox="0 0 30 30" fill="none" xmlns="http://www.w3.org/2000/svg">
	<path d="M19.5122 15C19.5122 17.4881 17.4881 19.5122 15 19.5122C12.5119 19.5122 10.4878 17.4881 10.4878 15C10.4878 12.5119 12.5119 10.4878 15 10.4878C17.4881 10.4878 19.5122 12.5119 19.5122 15ZM15 0C6.72938 0 0 6.72938 0 15C0 23.2706 6.72938 30 15 30C18.03 30 20.9522 29.0981 23.4497 27.3909L23.4928 27.3609L21.4716 25.0116L21.4378 25.0341C19.515 26.2706 17.2884 26.925 15 26.925C8.42438 26.925 3.075 21.5756 3.075 15C3.075 8.42438 8.42438 3.075 15 3.075C21.5756 3.075 26.925 8.42438 26.925 15C26.925 15.8522 26.8303 16.7147 26.6438 17.5631C26.2669 19.1109 25.1831 19.5853 24.3694 19.5225C23.5509 19.4559 22.5938 18.8728 22.5872 17.4459V16.3584V15C22.5872 10.8159 19.1841 7.41281 15 7.41281C10.8159 7.41281 7.41281 10.8159 7.41281 15C7.41281 19.1841 10.8159 22.5872 15 22.5872C17.0325 22.5872 18.9384 21.7922 20.3756 20.3475C21.2109 21.6478 22.5731 22.4634 24.1228 22.5872C24.2559 22.5984 24.3919 22.6041 24.5269 22.6041C25.6172 22.6041 26.6991 22.2394 27.5709 21.5766C28.47 20.8941 29.1413 19.9069 29.5125 18.7209C29.5716 18.5297 29.6803 18.0909 29.6813 18.0881L29.6841 18.0722C29.9025 17.1206 30 16.1719 30 15C30 6.72938 23.2706 0 15 0" fill="#0077FF"/>
</svg>
