<svg width="93" height="30" viewBox="0 0 93 30" fill="none" xmlns="http://www.w3.org/2000/svg">
<path d="M92.248 1.98262V22.1426H89.308V1.98262H92.248Z" fill="#2C2D2E"/>
<path d="M85.3847 7.86262V22.1426H82.4447V7.86262H85.3847ZM85.9447 3.57862C85.9447 4.64262 85.0767 5.62262 83.9287 5.62262C82.8367 5.62262 81.8847 4.72662 81.8847 3.57862C81.8847 2.45862 82.8367 1.56262 83.9287 1.56262C85.0767 1.56262 85.9447 2.54262 85.9447 3.57862Z" fill="#2C2D2E"/>
<path fill-rule="evenodd" clip-rule="evenodd" d="M70.8377 7.49863C66.6861 7.49863 63.3445 10.9054 63.3445 15.078C63.3445 19.2505 66.6861 22.6573 70.8377 22.6573C72.7453 22.6573 74.4819 21.9381 75.8019 20.7558L76.4473 22.1405H78.6752V7.8431H76.4473L75.759 9.36199C74.4444 8.2024 72.7247 7.49863 70.8377 7.49863ZM71.01 10.34C68.4489 10.34 66.3487 12.4479 66.3487 15.078C66.3487 17.708 68.4489 19.8159 71.01 19.8159C73.5711 19.8159 75.6713 17.708 75.6713 15.078C75.6713 12.4479 73.5711 10.34 71.01 10.34Z" fill="#2C2D2E"/>
<path d="M44.968 10.4386C42.98 10.4386 41.44 11.9506 41.44 13.9666V22.1426H38.5V7.86263H40.7537L41.44 9.17863C42.448 8.08663 43.904 7.49863 45.472 7.49863C47.32 7.49863 48.86 8.31063 49.896 9.71063C51.072 8.33863 52.836 7.49863 54.852 7.49863C58.464 7.49863 60.872 10.1586 60.872 13.9666V22.1426H57.932V14.0786C57.932 11.8946 56.644 10.4386 54.684 10.4386C52.696 10.4386 51.156 11.9506 51.156 13.9666V22.1426H48.216V14.0786C48.216 11.8946 46.928 10.4386 44.968 10.4386Z" fill="#2C2D2E"/>
<path d="M19.5122 15C19.5122 17.4881 17.4881 19.5122 15 19.5122C12.5119 19.5122 10.4878 17.4881 10.4878 15C10.4878 12.5119 12.5119 10.4878 15 10.4878C17.4881 10.4878 19.5122 12.5119 19.5122 15ZM15 0C6.72938 0 0 6.72938 0 15C0 23.2706 6.72938 30 15 30C18.03 30 20.9522 29.0981 23.4497 27.3909L23.4928 27.3609L21.4716 25.0116L21.4378 25.0341C19.515 26.2706 17.2884 26.925 15 26.925C8.42438 26.925 3.075 21.5756 3.075 15C3.075 8.42438 8.42438 3.075 15 3.075C21.5756 3.075 26.925 8.42438 26.925 15C26.925 15.8522 26.8303 16.7147 26.6438 17.5631C26.2669 19.1109 25.1831 19.5853 24.3694 19.5225C23.5509 19.4559 22.5938 18.8728 22.5872 17.4459V16.3584V15C22.5872 10.8159 19.1841 7.41281 15 7.41281C10.8159 7.41281 7.41281 10.8159 7.41281 15C7.41281 19.1841 10.8159 22.5872 15 22.5872C17.0325 22.5872 18.9384 21.7922 20.3756 20.3475C21.2109 21.6478 22.5731 22.4634 24.1228 22.5872C24.2559 22.5984 24.3919 22.6041 24.5269 22.6041C25.6172 22.6041 26.6991 22.2394 27.5709 21.5766C28.47 20.8941 29.1413 19.9069 29.5125 18.7209C29.5716 18.5297 29.6803 18.0909 29.6813 18.0881L29.6841 18.0722C29.9025 17.1206 30 16.1719 30 15C30 6.72938 23.2706 0 15 0" fill="#0077FF"/>
</svg>
